<mxfile host="app.diagrams.net" agent="Mozilla/5.0 (Windows NT 10.0; Win64; x64) AppleWebKit/537.36 (KHTML, like Gecko) Chrome/136.0.0.0 Safari/537.36" version="27.0.6">
  <diagram name="PÃ¡gina-1" id="sCSzcRymSkBOSrM6h96v">
    <mxGraphModel dx="1665" dy="743" grid="1" gridSize="10" guides="1" tooltips="1" connect="1" arrows="1" fold="1" page="1" pageScale="1" pageWidth="827" pageHeight="1169" math="0" shadow="0">
      <root>
        <mxCell id="0" />
        <mxCell id="1" parent="0" />
        <mxCell id="XH1TCgbbEFG6ygb6OMI3-1" value="Web Search" style="swimlane;whiteSpace=wrap;html=1;" vertex="1" parent="1">
          <mxGeometry x="50" y="80" width="740" height="650" as="geometry" />
        </mxCell>
        <mxCell id="XH1TCgbbEFG6ygb6OMI3-13" style="edgeStyle=orthogonalEdgeStyle;rounded=0;orthogonalLoop=1;jettySize=auto;html=1;exitX=0;exitY=0.5;exitDx=0;exitDy=0;entryX=0.5;entryY=0;entryDx=0;entryDy=0;" edge="1" parent="XH1TCgbbEFG6ygb6OMI3-1" source="XH1TCgbbEFG6ygb6OMI3-2" target="XH1TCgbbEFG6ygb6OMI3-8">
          <mxGeometry relative="1" as="geometry" />
        </mxCell>
        <mxCell id="XH1TCgbbEFG6ygb6OMI3-34" value="Feeds" style="edgeLabel;html=1;align=center;verticalAlign=middle;resizable=0;points=[];" vertex="1" connectable="0" parent="XH1TCgbbEFG6ygb6OMI3-13">
          <mxGeometry x="-0.2111" relative="1" as="geometry">
            <mxPoint as="offset" />
          </mxGeometry>
        </mxCell>
        <mxCell id="XH1TCgbbEFG6ygb6OMI3-25" style="edgeStyle=orthogonalEdgeStyle;rounded=0;orthogonalLoop=1;jettySize=auto;html=1;exitX=1;exitY=0.25;exitDx=0;exitDy=0;entryX=1;entryY=0.5;entryDx=0;entryDy=0;" edge="1" parent="XH1TCgbbEFG6ygb6OMI3-1" source="XH1TCgbbEFG6ygb6OMI3-2" target="XH1TCgbbEFG6ygb6OMI3-24">
          <mxGeometry relative="1" as="geometry">
            <Array as="points">
              <mxPoint x="630" y="65" />
              <mxPoint x="630" y="470" />
            </Array>
          </mxGeometry>
        </mxCell>
        <mxCell id="XH1TCgbbEFG6ygb6OMI3-33" value="Feeds" style="edgeLabel;html=1;align=center;verticalAlign=middle;resizable=0;points=[];" vertex="1" connectable="0" parent="XH1TCgbbEFG6ygb6OMI3-25">
          <mxGeometry x="-0.7257" y="1" relative="1" as="geometry">
            <mxPoint as="offset" />
          </mxGeometry>
        </mxCell>
        <mxCell id="XH1TCgbbEFG6ygb6OMI3-2" value="Search Protocol" style="rounded=0;whiteSpace=wrap;html=1;" vertex="1" parent="XH1TCgbbEFG6ygb6OMI3-1">
          <mxGeometry x="260" y="50" width="120" height="60" as="geometry" />
        </mxCell>
        <mxCell id="XH1TCgbbEFG6ygb6OMI3-16" style="edgeStyle=orthogonalEdgeStyle;rounded=0;orthogonalLoop=1;jettySize=auto;html=1;exitX=0;exitY=0.25;exitDx=0;exitDy=0;" edge="1" parent="XH1TCgbbEFG6ygb6OMI3-1" source="XH1TCgbbEFG6ygb6OMI3-3" target="XH1TCgbbEFG6ygb6OMI3-6">
          <mxGeometry relative="1" as="geometry" />
        </mxCell>
        <mxCell id="XH1TCgbbEFG6ygb6OMI3-31" value="Produces" style="edgeLabel;html=1;align=center;verticalAlign=middle;resizable=0;points=[];" vertex="1" connectable="0" parent="XH1TCgbbEFG6ygb6OMI3-16">
          <mxGeometry x="-0.0562" relative="1" as="geometry">
            <mxPoint as="offset" />
          </mxGeometry>
        </mxCell>
        <mxCell id="XH1TCgbbEFG6ygb6OMI3-29" style="edgeStyle=orthogonalEdgeStyle;rounded=0;orthogonalLoop=1;jettySize=auto;html=1;exitX=0.25;exitY=1;exitDx=0;exitDy=0;entryX=1;entryY=0.5;entryDx=0;entryDy=0;" edge="1" parent="XH1TCgbbEFG6ygb6OMI3-1" source="XH1TCgbbEFG6ygb6OMI3-3" target="XH1TCgbbEFG6ygb6OMI3-10">
          <mxGeometry relative="1" as="geometry" />
        </mxCell>
        <mxCell id="XH1TCgbbEFG6ygb6OMI3-30" value="Uses" style="edgeLabel;html=1;align=center;verticalAlign=middle;resizable=0;points=[];" vertex="1" connectable="0" parent="XH1TCgbbEFG6ygb6OMI3-29">
          <mxGeometry x="0.2359" y="-4" relative="1" as="geometry">
            <mxPoint as="offset" />
          </mxGeometry>
        </mxCell>
        <mxCell id="XH1TCgbbEFG6ygb6OMI3-3" value="Search Terms AI Agent" style="rounded=0;whiteSpace=wrap;html=1;" vertex="1" parent="XH1TCgbbEFG6ygb6OMI3-1">
          <mxGeometry x="461" y="140" width="120" height="70" as="geometry" />
        </mxCell>
        <mxCell id="XH1TCgbbEFG6ygb6OMI3-19" style="edgeStyle=orthogonalEdgeStyle;rounded=0;orthogonalLoop=1;jettySize=auto;html=1;exitX=0;exitY=0.25;exitDx=0;exitDy=0;entryX=1;entryY=0.25;entryDx=0;entryDy=0;" edge="1" parent="XH1TCgbbEFG6ygb6OMI3-1" source="XH1TCgbbEFG6ygb6OMI3-6" target="XH1TCgbbEFG6ygb6OMI3-8">
          <mxGeometry relative="1" as="geometry" />
        </mxCell>
        <mxCell id="XH1TCgbbEFG6ygb6OMI3-35" value="Uses" style="edgeLabel;html=1;align=center;verticalAlign=middle;resizable=0;points=[];" vertex="1" connectable="0" parent="XH1TCgbbEFG6ygb6OMI3-19">
          <mxGeometry x="-0.159" y="-2" relative="1" as="geometry">
            <mxPoint as="offset" />
          </mxGeometry>
        </mxCell>
        <mxCell id="XH1TCgbbEFG6ygb6OMI3-6" value="Search Terms" style="rounded=0;whiteSpace=wrap;html=1;" vertex="1" parent="XH1TCgbbEFG6ygb6OMI3-1">
          <mxGeometry x="260" y="180" width="120" height="60" as="geometry" />
        </mxCell>
        <mxCell id="XH1TCgbbEFG6ygb6OMI3-22" style="edgeStyle=orthogonalEdgeStyle;rounded=0;orthogonalLoop=1;jettySize=auto;html=1;exitX=0.25;exitY=1;exitDx=0;exitDy=0;entryX=0.75;entryY=0;entryDx=0;entryDy=0;" edge="1" parent="XH1TCgbbEFG6ygb6OMI3-1" source="XH1TCgbbEFG6ygb6OMI3-8" target="XH1TCgbbEFG6ygb6OMI3-15">
          <mxGeometry relative="1" as="geometry" />
        </mxCell>
        <mxCell id="XH1TCgbbEFG6ygb6OMI3-27" value="Calls" style="edgeLabel;html=1;align=center;verticalAlign=middle;resizable=0;points=[];" vertex="1" connectable="0" parent="XH1TCgbbEFG6ygb6OMI3-22">
          <mxGeometry x="-0.08" y="3" relative="1" as="geometry">
            <mxPoint as="offset" />
          </mxGeometry>
        </mxCell>
        <mxCell id="XH1TCgbbEFG6ygb6OMI3-8" value="Web Search AI Agent" style="rounded=0;whiteSpace=wrap;html=1;" vertex="1" parent="XH1TCgbbEFG6ygb6OMI3-1">
          <mxGeometry x="80" y="140" width="120" height="70" as="geometry" />
        </mxCell>
        <mxCell id="XH1TCgbbEFG6ygb6OMI3-26" style="edgeStyle=orthogonalEdgeStyle;rounded=0;orthogonalLoop=1;jettySize=auto;html=1;exitX=0.5;exitY=1;exitDx=0;exitDy=0;entryX=0.5;entryY=0;entryDx=0;entryDy=0;" edge="1" parent="XH1TCgbbEFG6ygb6OMI3-1" source="XH1TCgbbEFG6ygb6OMI3-10" target="XH1TCgbbEFG6ygb6OMI3-24">
          <mxGeometry relative="1" as="geometry" />
        </mxCell>
        <mxCell id="XH1TCgbbEFG6ygb6OMI3-36" value="Uses" style="edgeLabel;html=1;align=center;verticalAlign=middle;resizable=0;points=[];" vertex="1" connectable="0" parent="XH1TCgbbEFG6ygb6OMI3-26">
          <mxGeometry x="-0.3455" y="-2" relative="1" as="geometry">
            <mxPoint as="offset" />
          </mxGeometry>
        </mxCell>
        <mxCell id="XH1TCgbbEFG6ygb6OMI3-10" value="Search Results" style="rounded=0;whiteSpace=wrap;html=1;" vertex="1" parent="XH1TCgbbEFG6ygb6OMI3-1">
          <mxGeometry x="210" y="320" width="120" height="60" as="geometry" />
        </mxCell>
        <mxCell id="XH1TCgbbEFG6ygb6OMI3-14" style="edgeStyle=orthogonalEdgeStyle;rounded=0;orthogonalLoop=1;jettySize=auto;html=1;exitX=1;exitY=0.5;exitDx=0;exitDy=0;entryX=0.558;entryY=-0.014;entryDx=0;entryDy=0;entryPerimeter=0;" edge="1" parent="XH1TCgbbEFG6ygb6OMI3-1" source="XH1TCgbbEFG6ygb6OMI3-2" target="XH1TCgbbEFG6ygb6OMI3-3">
          <mxGeometry relative="1" as="geometry" />
        </mxCell>
        <mxCell id="XH1TCgbbEFG6ygb6OMI3-32" value="Feeds" style="edgeLabel;html=1;align=center;verticalAlign=middle;resizable=0;points=[];" vertex="1" connectable="0" parent="XH1TCgbbEFG6ygb6OMI3-14">
          <mxGeometry x="-0.0436" y="-3" relative="1" as="geometry">
            <mxPoint as="offset" />
          </mxGeometry>
        </mxCell>
        <mxCell id="XH1TCgbbEFG6ygb6OMI3-23" style="edgeStyle=orthogonalEdgeStyle;rounded=0;orthogonalLoop=1;jettySize=auto;html=1;exitX=0.75;exitY=1;exitDx=0;exitDy=0;" edge="1" parent="XH1TCgbbEFG6ygb6OMI3-1" source="XH1TCgbbEFG6ygb6OMI3-15" target="XH1TCgbbEFG6ygb6OMI3-10">
          <mxGeometry relative="1" as="geometry" />
        </mxCell>
        <mxCell id="XH1TCgbbEFG6ygb6OMI3-28" value="Produces" style="edgeLabel;html=1;align=center;verticalAlign=middle;resizable=0;points=[];" vertex="1" connectable="0" parent="XH1TCgbbEFG6ygb6OMI3-23">
          <mxGeometry x="-0.0308" relative="1" as="geometry">
            <mxPoint as="offset" />
          </mxGeometry>
        </mxCell>
        <mxCell id="XH1TCgbbEFG6ygb6OMI3-15" value="Searxng" style="rounded=0;whiteSpace=wrap;html=1;" vertex="1" parent="XH1TCgbbEFG6ygb6OMI3-1">
          <mxGeometry x="20" y="260" width="120" height="60" as="geometry" />
        </mxCell>
        <mxCell id="XH1TCgbbEFG6ygb6OMI3-38" style="edgeStyle=orthogonalEdgeStyle;rounded=0;orthogonalLoop=1;jettySize=auto;html=1;exitX=0.5;exitY=1;exitDx=0;exitDy=0;entryX=0.5;entryY=0;entryDx=0;entryDy=0;" edge="1" parent="XH1TCgbbEFG6ygb6OMI3-1" source="XH1TCgbbEFG6ygb6OMI3-24" target="XH1TCgbbEFG6ygb6OMI3-37">
          <mxGeometry relative="1" as="geometry" />
        </mxCell>
        <mxCell id="XH1TCgbbEFG6ygb6OMI3-39" value="Produces" style="edgeLabel;html=1;align=center;verticalAlign=middle;resizable=0;points=[];" vertex="1" connectable="0" parent="XH1TCgbbEFG6ygb6OMI3-38">
          <mxGeometry x="-0.2444" y="5" relative="1" as="geometry">
            <mxPoint as="offset" />
          </mxGeometry>
        </mxCell>
        <mxCell id="XH1TCgbbEFG6ygb6OMI3-24" value="Raw data AI Agent" style="rounded=0;whiteSpace=wrap;html=1;" vertex="1" parent="XH1TCgbbEFG6ygb6OMI3-1">
          <mxGeometry x="210" y="435" width="120" height="70" as="geometry" />
        </mxCell>
        <mxCell id="XH1TCgbbEFG6ygb6OMI3-37" value="Raw Data (Obsidian Vault)" style="rounded=0;whiteSpace=wrap;html=1;" vertex="1" parent="XH1TCgbbEFG6ygb6OMI3-1">
          <mxGeometry x="210" y="550" width="120" height="70" as="geometry" />
        </mxCell>
      </root>
    </mxGraphModel>
  </diagram>
</mxfile>
